<?xml version="1.0" encoding="utf-8"?>
<!-- Generator: Adobe Illustrator 16.0.0, SVG Export Plug-In . SVG Version: 6.00 Build 0)  -->
<!DOCTYPE svg PUBLIC "-//W3C//DTD SVG 1.1//EN" "http://www.w3.org/Graphics/SVG/1.1/DTD/svg11.dtd">
<svg version="1.1" id="Layer_1" xmlns="http://www.w3.org/2000/svg" xmlns:xlink="http://www.w3.org/1999/xlink" x="0px" y="0px"
	 width="12.725px" height="10px" viewBox="0 0 12.725 10" enable-background="new 0 0 12.725 10" xml:space="preserve">
<g>
	<path fill="#FFFFFF" d="M12.37,0.604c-0.246-0.057-0.492,0.096-0.551,0.342l-0.131,0.561h-8.43L3.014,0.363
		C2.969,0.151,2.782,0,2.565,0H0.459C0.205,0,0,0.206,0,0.458c0,0.254,0.205,0.459,0.459,0.459h1.735l1.184,5.56
		c0.045,0.212,0.231,0.363,0.448,0.363h7.193c0.214,0,0.398-0.146,0.446-0.354l1.247-5.33C12.77,0.909,12.617,0.663,12.37,0.604z
		 M6.352,3.809V2.424h2.221v1.385H6.352z M8.573,4.36v1.563H6.352V4.36H8.573z M9.123,2.424h2.351L11.15,3.809H9.123V2.424z
		 M5.801,2.424v1.385H3.748L3.453,2.424H5.801z M3.864,4.36h1.937v1.563H4.197L3.864,4.36z M10.656,5.923H9.123V4.36h1.898
		L10.656,5.923z"/>
	<circle fill="#FFFFFF" cx="5.218" cy="8.976" r="1.024"/>
	<circle fill="#FFFFFF" cx="9.622" cy="8.976" r="1.024"/>
</g>
</svg>
