<?xml version="1.0" encoding="utf-8"?>
<!-- Generator: Adobe Illustrator 16.0.0, SVG Export Plug-In . SVG Version: 6.00 Build 0)  -->
<!DOCTYPE svg PUBLIC "-//W3C//DTD SVG 1.1//EN" "http://www.w3.org/Graphics/SVG/1.1/DTD/svg11.dtd">
<svg version="1.1" id="Layer_1" xmlns="http://www.w3.org/2000/svg" xmlns:xlink="http://www.w3.org/1999/xlink" x="0px" y="0px"
	 width="40px" height="40px" viewBox="0 0 40 40" enable-background="new 0 0 40 40" xml:space="preserve">
<g>
	<path fill="#FFFFFF" d="M28.199,25.098H17.208c-0.417,0-0.754,0.338-0.754,0.755c0,0.416,0.337,0.754,0.754,0.754h10.992
		c0.416,0,0.754-0.338,0.754-0.754C28.953,25.436,28.615,25.098,28.199,25.098z"/>
	<path fill="#FFFFFF" d="M28.199,19.246H17.208c-0.417,0-0.754,0.337-0.754,0.754s0.337,0.754,0.754,0.754h10.992
		c0.416,0,0.754-0.337,0.754-0.754S28.615,19.246,28.199,19.246z"/>
	<path fill="#FFFFFF" d="M17.208,14.901h10.992c0.416,0,0.754-0.337,0.754-0.753c0-0.417-0.338-0.755-0.754-0.755H17.208
		c-0.417,0-0.754,0.338-0.754,0.755C16.454,14.564,16.791,14.901,17.208,14.901z"/>
	<path fill="#FFFFFF" d="M13.672,12.459h-1.87c-0.417,0-0.754,0.337-0.754,0.754v1.87c0,0.416,0.338,0.755,0.754,0.755h1.87
		c0.417,0,0.754-0.339,0.754-0.755v-1.87C14.426,12.796,14.088,12.459,13.672,12.459z"/>
	<path fill="#FFFFFF" d="M13.672,18.311h-1.87c-0.417,0-0.754,0.338-0.754,0.755v1.87c0,0.416,0.338,0.753,0.754,0.753h1.87
		c0.417,0,0.754-0.337,0.754-0.753v-1.87C14.426,18.648,14.088,18.311,13.672,18.311z"/>
	<path fill="#FFFFFF" d="M13.672,24.163h-1.87c-0.417,0-0.754,0.337-0.754,0.754v1.87c0,0.416,0.338,0.754,0.754,0.754h1.87
		c0.417,0,0.754-0.338,0.754-0.754v-1.87C14.426,24.5,14.088,24.163,13.672,24.163z"/>
</g>
</svg>
