<?xml version="1.0" encoding="utf-8"?>
<!-- Generator: Adobe Illustrator 16.0.0, SVG Export Plug-In . SVG Version: 6.00 Build 0)  -->
<!DOCTYPE svg PUBLIC "-//W3C//DTD SVG 1.1//EN" "http://www.w3.org/Graphics/SVG/1.1/DTD/svg11.dtd">
<svg version="1.1" id="Layer_1" xmlns="http://www.w3.org/2000/svg" xmlns:xlink="http://www.w3.org/1999/xlink" x="0px" y="0px"
	 width="18px" height="18px" viewBox="0 0 18 18" enable-background="new 0 0 18 18" xml:space="preserve">
<g>
	<path fill="#52C2C1" d="M9,0.053C4.067,0.053,0.053,4.065,0.053,9S4.067,17.947,9,17.947S17.947,13.934,17.947,9
		S13.934,0.053,9,0.053z M9,16.566c-4.173,0-7.567-3.394-7.567-7.567c0-4.172,3.394-7.566,7.567-7.566S16.566,4.828,16.566,9
		C16.566,13.173,13.174,16.566,9,16.566z"/>
	<path fill="#52C2C1" d="M12.632,8.635H9.129V3.65c0-0.301-0.246-0.546-0.547-0.546S8.036,3.349,8.036,3.65v5.715
		c0,0.115,0.036,0.221,0.097,0.31c0.117,0.246,0.366,0.418,0.657,0.418h3.842c0.403,0,0.729-0.327,0.729-0.729
		C13.36,8.962,13.035,8.635,12.632,8.635z"/>
</g>
</svg>
