<?xml version="1.0" encoding="utf-8"?>
<!-- Generator: Adobe Illustrator 16.0.0, SVG Export Plug-In . SVG Version: 6.00 Build 0)  -->
<!DOCTYPE svg PUBLIC "-//W3C//DTD SVG 1.1//EN" "http://www.w3.org/Graphics/SVG/1.1/DTD/svg11.dtd">
<svg version="1.1" id="Layer_1" xmlns="http://www.w3.org/2000/svg" xmlns:xlink="http://www.w3.org/1999/xlink" x="0px" y="0px"
	 width="40px" height="40px" viewBox="-10 -10 40 40" enable-background="new -10 -10 40 40" xml:space="preserve">
<g>
	<path fill="#FFFFFF" d="M12.047,6.572v0.837c0,0.148,0.122,0.271,0.273,0.271h0.836c0.148,0,0.271-0.123,0.271-0.271V6.572
		c0-0.149-0.122-0.271-0.271-0.271H12.32C12.169,6.301,12.047,6.422,12.047,6.572z"/>
	<path fill="#FFFFFF" d="M30-10h-40v40h40V-10z M14.878,14.921l-2.44-0.037H7.561l-2.438,0.037V9.11h2.832
		c-0.141,0.3-0.22,0.632-0.22,0.984c0,1.277,1.038,2.315,2.315,2.315c1.279,0,2.315-1.038,2.315-2.315
		c0-0.352-0.078-0.684-0.219-0.984h2.731V14.921z M9.088,10.094c0-0.53,0.431-0.961,0.961-0.961c0.53,0,0.961,0.432,0.961,0.961
		c0,0.53-0.432,0.963-0.961,0.963C9.52,11.057,9.088,10.624,9.088,10.094z M14.878,8.207h-1.67h-1.817
		c-0.38-0.27-0.841-0.429-1.341-0.429s-0.961,0.16-1.34,0.429H5.123V5.08l2.438,0.01h4.876l2.439-0.011L14.878,8.207L14.878,8.207z"
		/>
</g>
</svg>
