<?xml version="1.0" encoding="utf-8"?>
<!-- Generator: Adobe Illustrator 16.0.0, SVG Export Plug-In . SVG Version: 6.00 Build 0)  -->
<!DOCTYPE svg PUBLIC "-//W3C//DTD SVG 1.1//EN" "http://www.w3.org/Graphics/SVG/1.1/DTD/svg11.dtd">
<svg version="1.1" id="Layer_1" xmlns="http://www.w3.org/2000/svg" xmlns:xlink="http://www.w3.org/1999/xlink" x="0px" y="0px"
	 width="40px" height="40px" viewBox="-10 -10 40 40" enable-background="new -10 -10 40 40" xml:space="preserve">
<path fill="#FFFFFF" d="M30-10h-40v40h40V-10z M15.525,10.115c-0.123,0.611-0.424,1.25-0.905,1.917
	c-1.042,1.272-2.308,2.116-3.804,2.526h-0.024c-1.54,0.416-3.081,0.377-4.624-0.107c-1.346-0.508-2.433-1.318-3.253-2.441
	c0.815,0.645,1.569,0.965,2.272,0.967l0.02-0.006c1.154,0.074,2.138-0.287,2.956-1.091c0.003-0.004,0.008-0.007,0.011-0.013
	l-0.026-0.03c-0.472,0.022-0.794-0.124-0.972-0.426c-0.048-0.208,0-0.388,0.152-0.538c0.084-0.098,0.213-0.188,0.379-0.268
	c-0.833,0.023-1.408-0.268-1.736-0.873c0.251-0.27,0.572-0.397,0.961-0.375l0.003-0.013c-0.99-0.269-1.511-0.75-1.559-1.451
	C5.63,7.82,5.892,7.78,6.166,7.784V7.771C5.394,7.334,5.005,6.732,5.01,5.979c0.708,0.219,1.408,0.499,2.1,0.837
	C7.743,7.083,8.29,7.36,8.758,7.649c0.397,0.225,0.726,0.499,1.002,0.83l0.015-0.013l0.07-0.052
	c0.192-0.728,0.514-1.441,0.971-2.148l0.011-0.025c0.177-0.256,0.407-0.542,0.696-0.85c0.142-0.138,0.301-0.267,0.486-0.387
	c0.032,0.022-0.02,0.146-0.162,0.377c0.385-0.325,0.75-0.489,1.084-0.499c0.08,0.076-0.057,0.224-0.397,0.432
	c0.271-0.103,0.575-0.169,0.903-0.208c0.146,0.017,0.191,0.086,0.152,0.216c-0.117,0.162-0.505,0.309-1.158,0.452
	c-0.004,0-0.011,0-0.014,0.004l0.02,0.048c0.726-0.026,1.354,0.201,1.891,0.679c0.009,0.009,0.016,0.017,0.025,0.022
	c0.631,0.611,0.996,1.283,1.1,2.023c0.562,0.201,1.128,0.197,1.706-0.018c-0.16,0.42-0.644,0.673-1.468,0.763
	c-0.008-0.005-0.008-0.005-0.008,0v0.081c0.754,0.147,1.262,0.173,1.521,0.083l0.009,0.015
	C16.867,9.928,16.305,10.141,15.525,10.115z"/>
</svg>
