<?xml version="1.0" encoding="utf-8"?>
<!-- Generator: Adobe Illustrator 16.0.0, SVG Export Plug-In . SVG Version: 6.00 Build 0)  -->
<!DOCTYPE svg PUBLIC "-//W3C//DTD SVG 1.1//EN" "http://www.w3.org/Graphics/SVG/1.1/DTD/svg11.dtd">
<svg version="1.1" id="Layer_1" xmlns="http://www.w3.org/2000/svg" xmlns:xlink="http://www.w3.org/1999/xlink" x="0px" y="0px"
	 width="20px" height="20px" viewBox="0 0 20 20" enable-background="new 0 0 20 20" xml:space="preserve">
<path fill="#FFFFFF" d="M10,0C4.478,0,0,4.479,0,10c0,5.522,4.478,10,10,10c5.523,0,10-4.478,10-10C20,4.479,15.523,0,10,0z
	 M12.648,9.958h-1.731c0,2.769,0,6.176,0,6.176H8.35c0,0,0-3.373,0-6.176H7.129V7.779H8.35V6.366c0-1.011,0.48-2.59,2.589-2.59
	l1.901,0.007V5.9c0,0-1.155,0-1.38,0s-0.543,0.114-0.543,0.594v1.285h1.955L12.648,9.958z"/>
</svg>
