<?xml version="1.0" encoding="utf-8"?>
<!-- Generator: Adobe Illustrator 16.0.0, SVG Export Plug-In . SVG Version: 6.00 Build 0)  -->
<!DOCTYPE svg PUBLIC "-//W3C//DTD SVG 1.1//EN" "http://www.w3.org/Graphics/SVG/1.1/DTD/svg11.dtd">
<svg version="1.1" id="Layer_1" xmlns="http://www.w3.org/2000/svg" xmlns:xlink="http://www.w3.org/1999/xlink" x="0px" y="0px"
	 width="40px" height="40px" viewBox="0 0 40 40" enable-background="new 0 0 40 40" xml:space="preserve">
<g>
	<path fill="#FFFFFF" d="M22.047,16.413v0.837c0,0.148,0.122,0.271,0.272,0.271h0.837c0.147,0,0.271-0.123,0.271-0.271v-0.837
		c0-0.149-0.121-0.271-0.271-0.271h-0.837C22.169,16.142,22.047,16.263,22.047,16.413z"/>
	<path fill="#FFFFFF" d="M40-0.159H0v40h40V-0.159z M24.878,24.762l-2.439-0.037h-4.877l-2.438,0.037v-5.811h2.832
		c-0.141,0.3-0.22,0.632-0.22,0.984c0,1.277,1.038,2.315,2.315,2.315c1.279,0,2.315-1.038,2.315-2.315
		c0-0.352-0.078-0.684-0.22-0.984h2.731L24.878,24.762L24.878,24.762z M19.088,19.935c0-0.53,0.431-0.961,0.961-0.961
		c0.53,0,0.961,0.432,0.961,0.961c0,0.53-0.432,0.964-0.961,0.964C19.52,20.898,19.088,20.465,19.088,19.935z M24.878,18.048h-1.67
		h-1.816c-0.381-0.27-0.842-0.429-1.342-0.429s-0.961,0.16-1.34,0.429h-3.587v-3.127l2.438,0.01h4.875l2.439-0.011L24.878,18.048
		L24.878,18.048z"/>
</g>
</svg>
