<?xml version="1.0" encoding="utf-8"?>
<!-- Generator: Adobe Illustrator 16.0.0, SVG Export Plug-In . SVG Version: 6.00 Build 0)  -->
<!DOCTYPE svg PUBLIC "-//W3C//DTD SVG 1.1//EN" "http://www.w3.org/Graphics/SVG/1.1/DTD/svg11.dtd">
<svg version="1.1" id="Layer_1" xmlns="http://www.w3.org/2000/svg" xmlns:xlink="http://www.w3.org/1999/xlink" x="0px" y="0px"
	 width="20px" height="20px" viewBox="0 0 20 20" enable-background="new 0 0 20 20" xml:space="preserve">
<path fill="#FFFFFF" d="M10.001,0C4.479,0,0,4.479,0,10.001C0,15.527,4.479,20,10.001,20C15.526,20,20,15.527,20,10.001
	C20,4.479,15.526,0,10.001,0z M15.526,10.115c-0.124,0.611-0.425,1.25-0.906,1.917c-1.042,1.273-2.308,2.116-3.803,2.526h-0.025
	c-1.54,0.416-3.081,0.377-4.624-0.107c-1.346-0.508-2.433-1.318-3.253-2.441c0.815,0.645,1.569,0.964,2.272,0.967l0.02-0.007
	c1.154,0.075,2.138-0.286,2.956-1.09c0.003-0.004,0.008-0.007,0.011-0.013l-0.026-0.03c-0.472,0.023-0.794-0.124-0.972-0.426
	c-0.048-0.208,0-0.388,0.152-0.538c0.084-0.098,0.213-0.188,0.379-0.267c-0.833,0.023-1.408-0.268-1.736-0.873
	c0.251-0.27,0.572-0.397,0.961-0.375l0.003-0.013c-0.99-0.269-1.511-0.75-1.559-1.451C5.63,7.82,5.892,7.78,6.166,7.784V7.771
	C5.394,7.334,5.005,6.732,5.01,5.979c0.708,0.219,1.408,0.499,2.1,0.837c0.633,0.267,1.18,0.544,1.648,0.833
	C9.155,7.874,9.484,8.148,9.76,8.479l0.015-0.013l0.07-0.052c0.192-0.728,0.514-1.441,0.972-2.148l0.01-0.025
	c0.177-0.256,0.408-0.542,0.697-0.85c0.141-0.138,0.3-0.267,0.486-0.387c0.032,0.022-0.02,0.146-0.163,0.377
	c0.386-0.325,0.75-0.489,1.085-0.499c0.08,0.076-0.057,0.224-0.398,0.432c0.271-0.103,0.575-0.169,0.903-0.208
	c0.146,0.017,0.192,0.086,0.153,0.216c-0.117,0.162-0.505,0.309-1.158,0.452c-0.004,0-0.011,0-0.014,0.004l0.019,0.048
	c0.726-0.026,1.354,0.201,1.891,0.679c0.009,0.009,0.016,0.017,0.026,0.022c0.63,0.611,0.996,1.283,1.099,2.023
	c0.563,0.201,1.128,0.197,1.706-0.018c-0.16,0.42-0.644,0.673-1.468,0.763c-0.007-0.005-0.007-0.005-0.007,0v0.081
	c0.754,0.147,1.262,0.173,1.521,0.083l0.009,0.015C16.867,9.928,16.305,10.141,15.526,10.115z"/>
</svg>
