<?xml version="1.0" encoding="utf-8"?>
<!-- Generator: Adobe Illustrator 16.0.0, SVG Export Plug-In . SVG Version: 6.00 Build 0)  -->
<!DOCTYPE svg PUBLIC "-//W3C//DTD SVG 1.1//EN" "http://www.w3.org/Graphics/SVG/1.1/DTD/svg11.dtd">
<svg version="1.1" id="Layer_1" xmlns="http://www.w3.org/2000/svg" xmlns:xlink="http://www.w3.org/1999/xlink" x="0px" y="0px"
	 width="40px" height="40px" viewBox="0 0 40 40" enable-background="new 0 0 40 40" xml:space="preserve">
<path fill="#FFFFFF" d="M40.025,0.115h-40v40h40V0.115z M25.55,20.23c-0.123,0.611-0.424,1.25-0.905,1.917
	c-1.041,1.272-2.308,2.116-3.804,2.526h-0.024c-1.54,0.416-3.081,0.377-4.624-0.107c-1.346-0.508-2.433-1.318-3.253-2.441
	c0.815,0.645,1.569,0.965,2.272,0.967l0.02-0.006c1.154,0.074,2.138-0.287,2.956-1.091c0.003-0.004,0.008-0.007,0.011-0.013
	l-0.026-0.03c-0.472,0.022-0.794-0.124-0.972-0.426c-0.048-0.208,0-0.388,0.152-0.538c0.084-0.098,0.213-0.188,0.379-0.268
	c-0.833,0.022-1.408-0.269-1.736-0.874c0.251-0.27,0.572-0.397,0.961-0.375l0.003-0.013c-0.99-0.269-1.511-0.75-1.559-1.451
	c0.254-0.073,0.516-0.113,0.79-0.109v-0.013c-0.772-0.437-1.161-1.039-1.156-1.792c0.708,0.219,1.408,0.499,2.1,0.837
	c0.633,0.267,1.18,0.544,1.648,0.833c0.397,0.225,0.726,0.499,1.002,0.83l0.015-0.013l0.07-0.052
	c0.192-0.728,0.514-1.441,0.971-2.148l0.011-0.025c0.178-0.256,0.407-0.542,0.696-0.85c0.142-0.138,0.302-0.267,0.485-0.387
	c0.033,0.022-0.02,0.146-0.161,0.377c0.385-0.325,0.75-0.489,1.084-0.499c0.079,0.076-0.058,0.224-0.397,0.432
	c0.271-0.103,0.575-0.169,0.903-0.208c0.146,0.017,0.19,0.086,0.151,0.216c-0.116,0.162-0.504,0.309-1.157,0.452
	c-0.005,0-0.011,0-0.015,0.004l0.021,0.048c0.726-0.026,1.354,0.201,1.892,0.679c0.008,0.009,0.016,0.017,0.024,0.022
	c0.631,0.611,0.996,1.283,1.101,2.023c0.562,0.201,1.127,0.197,1.705-0.018c-0.16,0.42-0.644,0.673-1.468,0.763
	c-0.008-0.005-0.008-0.005-0.008,0v0.081c0.754,0.147,1.262,0.173,1.521,0.083l0.01,0.015C26.893,20.043,26.33,20.256,25.55,20.23z"
	/>
</svg>
