<?xml version="1.0" encoding="utf-8"?>
<!-- Generator: Adobe Illustrator 16.0.0, SVG Export Plug-In . SVG Version: 6.00 Build 0)  -->
<!DOCTYPE svg PUBLIC "-//W3C//DTD SVG 1.1//EN" "http://www.w3.org/Graphics/SVG/1.1/DTD/svg11.dtd">
<svg version="1.1" id="Layer_1" xmlns="http://www.w3.org/2000/svg" xmlns:xlink="http://www.w3.org/1999/xlink" x="0px" y="0px"
	 width="562.875px" height="80px" viewBox="0 0 562.875 80" enable-background="new 0 0 562.875 80" xml:space="preserve">
<g>
	<path d="M13.534,55.855c0.117,2.111,0.586,3.965,1.409,5.552c0.704,1.404,1.807,2.685,3.304,3.83
		c1.496,1.145,3.623,1.716,6.385,1.716c2.76,0,4.89-0.571,6.386-1.716c1.499-1.146,2.599-2.426,3.305-3.83
		c0.82-1.587,1.289-3.44,1.408-5.552V1.946h12.685v53.91c-0.235,4.463-1.233,8.427-2.994,11.892
		c-0.765,1.526-1.718,2.996-2.865,4.403c-1.144,1.409-2.553,2.676-4.228,3.789c-1.672,1.116-3.625,2.011-5.856,2.685
		c-2.235,0.674-4.846,1.015-7.841,1.015c-2.994,0-5.609-0.341-7.838-1.015c-2.234-0.674-4.186-1.568-5.858-2.685
		c-1.675-1.113-3.085-2.38-4.23-3.789c-1.143-1.407-2.098-2.877-2.863-4.403C2.08,64.282,1.084,60.318,0.85,55.855H13.534z"/>
	<path d="M50.507,78.053L77.462,1.946h12.685L117.1,78.053h-14.269L98.25,65.367H69.357l-4.582,12.686H50.507z M83.804,24.848
		l-9.955,27.746h19.909L83.804,24.848z"/>
	<path d="M189.071,52.686c-1.527,5.047-3.876,9.544-7.048,13.474c-1.35,1.704-2.935,3.366-4.757,4.978
		c-1.819,1.615-3.904,3.055-6.253,4.318c-2.351,1.263-5.007,2.273-7.971,3.038c-2.966,0.763-6.271,1.146-9.911,1.146
		c-5.462,0-10.601-1.045-15.416-3.128c-4.815-2.084-9.016-4.918-12.596-8.5c-3.583-3.578-6.416-7.781-8.502-12.597
		c-2.083-4.814-3.125-9.953-3.125-15.415c0-5.46,1.042-10.6,3.125-15.416c2.087-4.814,4.919-9.013,8.502-12.594
		c3.58-3.583,7.78-6.416,12.596-8.503c4.814-2.083,9.954-3.125,15.416-3.125c3.64,0,6.944,0.38,9.911,1.145
		c2.964,0.764,5.621,1.79,7.971,3.083c2.349,1.292,4.434,2.745,6.253,4.359c1.822,1.616,3.407,3.245,4.757,4.887
		c3.171,3.998,5.521,8.489,7.048,13.479H175.33c-1.235-2.643-2.849-5.019-4.845-7.132c-1.705-1.764-3.995-3.393-6.871-4.893
		c-2.88-1.496-6.373-2.243-10.482-2.243c-3.7,0-7.193,0.702-10.483,2.112c-3.289,1.409-6.152,3.333-8.588,5.77
		c-2.437,2.437-4.36,5.3-5.77,8.587c-1.41,3.29-2.114,6.785-2.114,10.483c0,3.699,0.704,7.192,2.114,10.483
		c1.41,3.286,3.333,6.152,5.77,8.589c2.436,2.438,5.299,4.36,8.588,5.768c3.29,1.412,6.783,2.114,10.483,2.114
		c4.169,0,7.679-0.734,10.527-2.203c2.848-1.468,5.122-3.109,6.826-4.93c1.996-2.055,3.61-4.438,4.845-7.135H189.071z"/>
	<path d="M303.191,1.946l-26.956,76.107h-12.684L236.597,1.946h14.271l19.027,53.203l19.027-53.203H303.191z"/>
	<path d="M290.821,78.053l26.952-76.107h12.686l26.955,76.107h-14.27l-4.581-12.686H309.67l-4.579,12.686H290.821z M324.119,24.848
		l-9.956,27.746h19.906L324.119,24.848z"/>
	<path d="M362.809,1.946h11.454l42.457,53.733V1.946h12.685v76.107h-11.452L375.493,24.32v53.732h-12.685V1.946z"/>
	<path d="M437.682,1.946h56.729v12.686h-44.044v19.027h31.709v12.683h-31.709v19.026h44.044v12.686h-56.729V1.946z"/>
	<path d="M514.584,1.946v31.8l28.889-31.8h17.092l-34.532,38.053l36.118,38.054h-17.441L517.4,49.423l-2.816,3.171v25.459h-13.037
		V1.946H514.584z"/>
</g>
</svg>
