<?xml version="1.0" encoding="utf-8"?>
<!-- Generator: Adobe Illustrator 16.0.0, SVG Export Plug-In . SVG Version: 6.00 Build 0)  -->
<!DOCTYPE svg PUBLIC "-//W3C//DTD SVG 1.1//EN" "http://www.w3.org/Graphics/SVG/1.1/DTD/svg11.dtd">
<svg version="1.1" id="Layer_1" xmlns="http://www.w3.org/2000/svg" xmlns:xlink="http://www.w3.org/1999/xlink" x="0px" y="0px"
	 width="40px" height="40px" viewBox="0 0 40 40" enable-background="new 0 0 40 40" xml:space="preserve">
<g>
	<path fill="#FFFFFF" stroke="#FFFFFF" stroke-width="0.0361" stroke-miterlimit="10" d="M22.817,21.423l4.131,4.131
		c0.12,0.121,0.072,0.39-0.127,0.591l-0.876,0.875c-0.2,0.2-0.483,0.262-0.604,0.142l-4.13-4.131L22.817,21.423z"/>
	
		<rect x="21.146" y="21.655" transform="matrix(0.7071 -0.7071 0.7071 0.7071 -9.1813 21.8286)" fill="#FFFFFF" stroke="#FFFFFF" stroke-width="0.0361" stroke-miterlimit="10" width="1.226" height="0.685"/>
	<path fill="#FFFFFF" stroke="#FFFFFF" stroke-width="0.0344" stroke-miterlimit="10" d="M14.321,14.534
		c-1.985,1.984-1.985,5.202,0,7.187c1.984,1.984,5.202,1.984,7.187,0s1.984-5.202,0-7.187
		C19.523,12.549,16.306,12.549,14.321,14.534z M20.249,20.461c-1.289,1.289-3.379,1.289-4.667,0c-1.289-1.289-1.289-3.379,0-4.667
		s3.378-1.289,4.667,0C21.537,17.083,21.537,19.172,20.249,20.461z"/>
</g>
</svg>
